<svg width="560" height="270" viewBox="0 0 560 270" fill="none" xmlns="http://www.w3.org/2000/svg">
<line x1="137.992" y1="134.661" x2="224.992" y2="79.6606" stroke="#96E6A1" stroke-width="15"/>
<line x1="371.712" y1="79.4831" x2="450.712" y2="124.483" stroke="#E2FF9E" stroke-width="15"/>
<path d="M300.737 126.862L441.258 44.5877C447.882 40.709 456.226 45.432 456.31 53.108L458.075 214.565C458.159 222.241 449.92 227.145 443.212 223.412L300.927 144.229C294.163 140.465 294.057 130.773 300.737 126.862Z" stroke="#E2FF9E" stroke-opacity="0.8" stroke-width="20"/>
<path d="M301.725 144.884L160.245 225.496C153.575 229.297 145.288 224.476 145.294 216.799L145.432 55.3328C145.439 47.6563 153.734 42.8495 160.397 46.6611L301.74 127.515C308.459 131.359 308.451 141.051 301.725 144.884Z" stroke="#96E6A1" stroke-width="20"/>
<path d="M59.668 104.086H35.9023V170H26.2031V104.086H2.48828V96.0625H59.668V104.086ZM97.7539 140.09H80.3867V170H70.5859V96.0625H95.0625C103.391 96.0625 109.789 97.9583 114.258 101.75C118.76 105.542 121.012 111.06 121.012 118.305C121.012 122.909 119.759 126.921 117.254 130.34C114.783 133.759 111.329 136.315 106.895 138.008L124.262 169.391V170H113.801L97.7539 140.09ZM80.3867 132.117H95.3672C100.208 132.117 104.051 130.865 106.895 128.359C109.772 125.854 111.211 122.503 111.211 118.305C111.211 113.734 109.84 110.23 107.098 107.793C104.389 105.355 100.462 104.12 95.3164 104.086H80.3867V132.117ZM145.184 170H135.434V96.0625H145.184V170ZM271.477 170H261.676L224.453 113.023V170H214.652V96.0625H224.453L261.777 153.293V96.0625H271.477V170ZM343.383 160.301C340.878 163.889 337.374 166.581 332.871 168.375C328.402 170.135 323.189 171.016 317.23 171.016C311.204 171.016 305.855 169.611 301.184 166.801C296.512 163.957 292.889 159.928 290.316 154.715C287.777 149.501 286.474 143.458 286.406 136.586V130.137C286.406 118.999 288.996 110.366 294.176 104.238C299.389 98.1107 306.702 95.0469 316.113 95.0469C323.832 95.0469 330.044 97.0273 334.75 100.988C339.456 104.915 342.333 110.501 343.383 117.746H333.633C331.805 107.962 325.982 103.07 316.164 103.07C309.63 103.07 304.671 105.372 301.285 109.977C297.934 114.547 296.241 121.182 296.207 129.883V135.926C296.207 144.22 298.103 150.822 301.895 155.73C305.686 160.605 310.815 163.043 317.281 163.043C320.938 163.043 324.137 162.637 326.879 161.824C329.621 161.012 331.889 159.641 333.684 157.711V141.105H316.57V133.184H343.383V160.301ZM369.484 162.027H404.523V170H359.684V96.0625H369.484V162.027ZM495.828 146.539C494.914 154.359 492.02 160.402 487.145 164.668C482.303 168.9 475.854 171.016 467.797 171.016C459.062 171.016 452.055 167.884 446.773 161.621C441.526 155.358 438.902 146.979 438.902 136.484V129.375C438.902 122.503 440.121 116.46 442.559 111.246C445.03 106.033 448.517 102.038 453.02 99.2617C457.522 96.4518 462.736 95.0469 468.66 95.0469C476.514 95.0469 482.811 97.2474 487.551 101.648C492.29 106.016 495.049 112.076 495.828 119.828H486.027C485.181 113.938 483.336 109.672 480.492 107.031C477.682 104.391 473.738 103.07 468.66 103.07C462.431 103.07 457.539 105.372 453.984 109.977C450.464 114.581 448.703 121.132 448.703 129.629V136.789C448.703 144.812 450.379 151.194 453.73 155.934C457.082 160.673 461.771 163.043 467.797 163.043C473.214 163.043 477.361 161.824 480.238 159.387C483.15 156.915 485.079 152.633 486.027 146.539H495.828ZM550.977 135.824H518.934V162.027H556.156V170H509.184V96.0625H555.648V104.086H518.934V127.852H550.977V135.824Z" fill="black"/>
</svg>
