<svg width="560" height="269" viewBox="0 0 560 269" fill="none" xmlns="http://www.w3.org/2000/svg">
<path d="M310.737 126.862L451.258 44.5877C457.882 40.709 466.226 45.432 466.31 53.108L468.075 214.565C468.159 222.241 459.92 227.145 453.212 223.412L310.927 144.229C304.163 140.465 304.057 130.773 310.737 126.862Z" stroke="#E2FF9E" stroke-width="20"/>
<path d="M293.725 141.883L152.245 222.496C145.575 226.296 137.288 221.475 137.295 213.799L137.432 52.3323C137.439 44.6558 145.734 39.849 152.398 43.6607L293.74 124.514C300.459 128.358 300.451 138.051 293.725 141.883Z" stroke="#96E6A1" stroke-width="20"/>
<path d="M59.668 101.086H35.9023V167H26.2031V101.086H2.48828V93.0625H59.668V101.086ZM97.7539 137.09H80.3867V167H70.5859V93.0625H95.0625C103.391 93.0625 109.789 94.9583 114.258 98.75C118.76 102.542 121.012 108.06 121.012 115.305C121.012 119.909 119.759 123.921 117.254 127.34C114.783 130.759 111.329 133.315 106.895 135.008L124.262 166.391V167H113.801L97.7539 137.09ZM80.3867 129.117H95.3672C100.208 129.117 104.051 127.865 106.895 125.359C109.772 122.854 111.211 119.503 111.211 115.305C111.211 110.734 109.84 107.23 107.098 104.793C104.389 102.355 100.462 101.12 95.3164 101.086H80.3867V129.117ZM145.184 167H135.434V93.0625H145.184V167ZM271.477 167H261.676L224.453 110.023V167H214.652V93.0625H224.453L261.777 150.293V93.0625H271.477V167ZM343.383 157.301C340.878 160.889 337.374 163.581 332.871 165.375C328.402 167.135 323.189 168.016 317.23 168.016C311.204 168.016 305.855 166.611 301.184 163.801C296.512 160.957 292.889 156.928 290.316 151.715C287.777 146.501 286.474 140.458 286.406 133.586V127.137C286.406 115.999 288.996 107.366 294.176 101.238C299.389 95.1107 306.702 92.0469 316.113 92.0469C323.832 92.0469 330.044 94.0273 334.75 97.9883C339.456 101.915 342.333 107.501 343.383 114.746H333.633C331.805 104.962 325.982 100.07 316.164 100.07C309.63 100.07 304.671 102.372 301.285 106.977C297.934 111.547 296.241 118.182 296.207 126.883V132.926C296.207 141.22 298.103 147.822 301.895 152.73C305.686 157.605 310.815 160.043 317.281 160.043C320.938 160.043 324.137 159.637 326.879 158.824C329.621 158.012 331.889 156.641 333.684 154.711V138.105H316.57V130.184H343.383V157.301ZM369.484 159.027H404.523V167H359.684V93.0625H369.484V159.027ZM495.828 143.539C494.914 151.359 492.02 157.402 487.145 161.668C482.303 165.9 475.854 168.016 467.797 168.016C459.062 168.016 452.055 164.884 446.773 158.621C441.526 152.358 438.902 143.979 438.902 133.484V126.375C438.902 119.503 440.121 113.46 442.559 108.246C445.03 103.033 448.517 99.0378 453.02 96.2617C457.522 93.4518 462.736 92.0469 468.66 92.0469C476.514 92.0469 482.811 94.2474 487.551 98.6484C492.29 103.016 495.049 109.076 495.828 116.828H486.027C485.181 110.938 483.336 106.672 480.492 104.031C477.682 101.391 473.738 100.07 468.66 100.07C462.431 100.07 457.539 102.372 453.984 106.977C450.464 111.581 448.703 118.132 448.703 126.629V133.789C448.703 141.812 450.379 148.194 453.73 152.934C457.082 157.673 461.771 160.043 467.797 160.043C473.214 160.043 477.361 158.824 480.238 156.387C483.15 153.915 485.079 149.633 486.027 143.539H495.828ZM550.977 132.824H518.934V159.027H556.156V167H509.184V93.0625H555.648V101.086H518.934V124.852H550.977V132.824Z" fill="black"/>
</svg>
